<?xml version="1.0" encoding="utf-8"?>
<!-- Generator: Adobe Illustrator 24.1.2, SVG Export Plug-In . SVG Version: 6.00 Build 0)  -->
<svg version="1.1" id="Layer_1" xmlns="http://www.w3.org/2000/svg" xmlns:xlink="http://www.w3.org/1999/xlink" x="0px" y="0px"
	 viewBox="0 0 184.1 46.4" style="enable-background:new 0 0 184.1 46.4;" xml:space="preserve">
<style type="text/css">
	.st0{fill:#3DCFD3;}
	.st1{fill:#FFFFFF;}
	.st2{font-family:'ArialMT';}
	.st3{font-size:28px;}
</style>
<g id="Logo" transform="translate(-258.98 -51.39)">
	<path id="Layer_14" class="st0" d="M282.2,97.8c-12.8,0-23.1-10.4-23.1-23.1c0-12.8,10.4-23.1,23.1-23.1
		c12.8,0,23.1,10.4,23.1,23.1c0,9.3-5.6,17.6-14.1,21.3C288.3,97.1,285.3,97.8,282.2,97.8z M282.2,64.4c-5.6,0-10.1,4.5-10.1,10.1
		s4.5,10.1,10.1,10.1c5.6,0,10.1-4.5,10.1-10.1l0,0C292.3,69,287.7,64.5,282.2,64.4z"/>
	<text transform="matrix(1 0 0 1 323.868 84.301)" class="st1 st2 st3">Saroj</text>
</g>
</svg>
